<?xml version="1.0" encoding="UTF-8" standalone="no"?>
<!-- Created with Inkscape (http://www.inkscape.org/) -->

<svg
   version="1.1"
   id="svg1"
   width="216.36145"
   height="76.476234"
   viewBox="0 0 216.36145 76.476235"
   sodipodi:docname="a2585624274ac71d01ff9f98afa629be040fdd32_b.jpg"
   inkscape:version="0.0"
   inkscape:export-filename="logo.svg"
   inkscape:export-xdpi="96"
   inkscape:export-ydpi="96"
   xmlns:inkscape="http://www.inkscape.org/namespaces/inkscape"
   xmlns:sodipodi="http://sodipodi.sourceforge.net/DTD/sodipodi-0.dtd"
   xmlns="http://www.w3.org/2000/svg"
   xmlns:svg="http://www.w3.org/2000/svg">
  <defs
     id="defs1" />
  <sodipodi:namedview
     id="namedview1"
     pagecolor="#ffffff"
     bordercolor="#000000"
     borderopacity="0.25"
     inkscape:showpageshadow="2"
     inkscape:pageopacity="0.0"
     inkscape:pagecheckerboard="0"
     inkscape:deskcolor="#d1d1d1"
     inkscape:zoom="3.4609375"
     inkscape:cx="128.14447"
     inkscape:cy="72.957111"
     inkscape:window-width="1854"
     inkscape:window-height="1011"
     inkscape:window-x="1986"
     inkscape:window-y="32"
     inkscape:window-maximized="1"
     inkscape:current-layer="g1">
    <inkscape:page
       x="0"
       y="0"
       width="216.36145"
       height="76.476234"
       id="page2"
       margin="0"
       bleed="0" />
  </sodipodi:namedview>
  <g
     inkscape:groupmode="layer"
     inkscape:label="Image"
     id="g1"
     transform="translate(-20.087494,-27.88334)">
    <path
       style="opacity:1;fill:#aa0000"
       d="m 135.32894,94.29939 c -4.488,-5.53125 -8.27432,-10.06565 -8.41405,-10.07643 -0.13973,-0.0108 -0.21173,4.07835 -0.16,9.08697 0.0896,8.67379 0.12447,9.12957 0.73405,9.58983 0.352,0.26577 1.108,0.4878 1.68,0.4934 0.572,0.006 1.04,0.15418 1.04,0.33018 0,0.19753 -1.65333,0.32 -4.32,0.32 -2.66667,0 -4.32,-0.12247 -4.32,-0.32 0,-0.176 0.504,-0.32 1.12,-0.32 0.69333,0 1.36381,-0.24381 1.76,-0.64 0.61325,-0.61325 0.64,-1.06667 0.64,-10.84685 V 81.70964 l -1.1158,-0.97969 c -0.61369,-0.53882 -1.72969,-1.16574 -2.48,-1.39315 -1.33099,-0.4034 -1.27943,-0.41568 2.11779,-0.50471 3.04277,-0.0797 3.53256,-0.0192 3.88286,0.48 0.22048,0.31419 2.18158,2.74088 4.35801,5.39265 2.17643,2.65177 5.46914,6.68377 7.31714,8.96 l 3.36,4.1386 0.0857,-8.16 c 0.0585,-5.57041 -0.0302,-8.43986 -0.27959,-9.04186 -0.26924,-0.65002 -0.75448,-1.00171 -1.84567,-1.33771 -1.43669,-0.44239 -1.34812,-0.4555 2.99959,-0.44387 3.60652,0.01 4.21373,0.0716 3.1143,0.31767 -2.50816,0.56141 -2.4743,0.37516 -2.4743,13.61108 0,7.53175 -0.11248,11.61309 -0.32,11.61092 -0.176,-0.002 -3.992,-4.52892 -8.48,-10.06018 z m -104.640001,9.28985 c 0,-0.38374 0.336441,-0.5059 1.393273,-0.5059 2.192816,0 2.970495,-0.93004 3.240665,-3.87556 0.389745,-4.24918 0.0591,-27.23161 -0.403424,-28.04113 -0.524134,-0.91734 -2.005102,-1.68331 -3.254623,-1.68331 -0.53674,0 -0.975891,-0.144001 -0.975891,-0.320001 0,-0.42794 19.825326,-0.42759 22.082053,3.89e-4 4.69191,0.889802 7.481853,4.001602 7.506111,8.372042 0.01037,1.8686 -0.108413,2.30353 -0.960055,3.51527 -1.177615,1.67554 -2.506842,2.60786 -5.029488,3.52766 l -1.906316,0.69508 2.033848,0.70338 c 3.244624,1.12211 3.656604,1.32523 4.897151,2.41445 1.799491,1.57997 2.515618,3.25159 2.524035,5.89173 0.01438,4.50954 -2.321913,7.2042 -7.787339,8.98185 -1.510655,0.49134 -3.29007,0.59068 -12.56,0.7012 -9.68669,0.11547 -10.8,0.0766 -10.8,-0.37715 z m 19.154307,-2.43867 c 2.478072,-1.39275 3.825106,-4.79196 3.220415,-8.12663 -0.768748,-4.23939 -2.784974,-5.94767 -7.574722,-6.41783 l -2.32,-0.22773 v 7.1767 c 0,7.03248 0.01447,7.19004 0.72,7.84053 0.396,0.36511 1.008,0.72055 1.36,0.78985 1.02004,0.20085 3.315656,-0.31625 4.594307,-1.03489 z M 49.002818,83.47073 c 3.358959,-1.96848 4.158985,-7.57983 1.510708,-10.59605 -1.253247,-1.42737 -2.568016,-2.00546 -5.184587,-2.2796 l -2.16,-0.2263 v 7.05061 c 0,5.01942 0.105767,7.08587 0.367134,7.17299 0.89607,0.29869 4.199762,-0.37915 5.466745,-1.12165 z m 12.406121,20.31689 c 0,-0.14064 0.468,-0.42505 1.04,-0.63202 0.620858,-0.22465 1.340137,-0.86315 1.784718,-1.58428 0.409595,-0.66439 2.86912,-6.16782 5.465612,-12.22985 2.596491,-6.06203 4.860209,-11.06831 5.030485,-11.12507 0.170275,-0.0568 2.093626,4.18308 4.274113,9.42187 6.192747,14.87855 6.400503,15.26815 8.349552,15.65796 2.218642,0.44373 0.584427,0.74711 -4.02448,0.74711 -3.093333,0 -4.96,-0.12043 -4.96,-0.32 0,-0.176 0.337682,-0.32 0.750404,-0.32 0.412722,0 1.007504,-0.28409 1.321737,-0.63132 0.703913,-0.77781 0.555298,-1.6825 -0.818481,-4.98247 l -1.000009,-2.40213 -4.990562,0.088 -4.990563,0.088 -1.031684,2.4 c -1.497591,3.48383 -1.579757,3.98108 -0.788573,4.77227 0.367252,0.36717 1.027731,0.66765 1.467731,0.66765 0.44,0 0.8,0.144 0.8,0.32 0,0.19555 -1.493333,0.32 -3.84,0.32 -2.112,0 -3.84,-0.11507 -3.84,-0.25572 z m 16.64,-9.59854 c 0,-0.33922 -3.983498,-9.91591 -4.225092,-10.1575 -0.175146,-0.17515 -4.414908,9.46139 -4.414908,10.03462 0,0.18887 1.729129,0.33222 4.32,0.35815 2.376,0.0238 4.32,-0.0821 4.32,-0.23527 z m 13.76,9.53426 c 0,-0.176 0.504,-0.32 1.12,-0.32 2.5884,0 2.83459,-1.28943 2.671335,-13.99119 -0.125747,-9.78347 -0.108667,-9.71671 -2.630985,-10.28355 -0.972412,-0.21853 0.411043,-0.30575 5.249913,-0.33099 7.265348,-0.0379 9.047698,0.23565 10.940068,1.67903 1.5249,1.1631 2.29602,2.83724 2.25402,4.89357 -0.0573,2.80383 -1.31414,4.44394 -4.35153,5.67843 l -1.78245,0.72444 3.5233,4.85615 c 3.66671,5.05381 5.0223,6.32822 7.08633,6.6619 2.28092,0.36876 1.18784,0.75221 -2.14425,0.75221 h -3.34426 l -2.19039,-2.96 c -1.20472,-1.628 -3.1198,-4.2857 -4.25575,-5.90599 l -2.06535,-2.94599 -1.54253,-0.014 -1.542524,-0.014 0.10253,4.98899 c 0.0986,4.79749 0.13152,5.01245 0.85797,5.6 0.415504,0.33606 1.243504,0.61101 1.840004,0.61101 0.5965,0 1.08455,0.144 1.08455,0.32 0,0.20078 -2.02667,0.32 -5.440001,0.32 -3.413333,0 -5.44,-0.11922 -5.44,-0.32 z M 104.13951,90.30481 c 1.60488,-0.70143 2.93766,-2.24688 3.21566,-3.72877 0.68085,-3.6292 -1.66816,-6.53712 -5.27355,-6.52833 -3.447774,0.008 -3.232684,-0.36286 -3.232684,5.57962 0,2.85414 0.108,5.29741 0.24,5.42948 0.36499,0.3652 3.594694,-0.11568 5.050574,-0.752 z m 43.02943,13.46482 c 0,-0.15054 0.46539,-0.40718 1.0342,-0.57031 0.59532,-0.17074 1.32938,-0.73461 1.72975,-1.32873 0.38255,-0.56766 2.80471,-5.96674 5.38257,-11.99794 2.57787,-6.03121 4.81749,-11.17691 4.97693,-11.43489 0.18668,-0.30205 0.38955,-0.35608 0.56978,-0.15175 0.15393,0.17453 2.12622,4.78133 4.38285,10.23733 2.25664,5.456 4.50738,10.73337 5.00164,11.72749 0.94948,1.90968 2.21317,3.15251 3.20543,3.15251 0.32827,0 0.59685,0.144 0.59685,0.32 0,0.19971 -1.88444,0.32 -5.01333,0.32 -4.94067,0 -5.5503,-0.13619 -3.53115,-0.78885 1.44299,-0.46643 1.47457,-1.82972 0.11885,-5.13115 l -1.05125,-2.56 h -5.0466 -5.04659 l -0.96846,2.24 c -1.87666,4.34063 -1.821,5.1254 0.38863,5.47873 2.49873,0.39956 1.20156,0.76127 -2.7301,0.76127 -2.2,0 -4,-0.12317 -4,-0.27371 z m 16.64,-9.6859 c 0,-0.43812 -3.79628,-9.62617 -4.11237,-9.95306 -0.27573,-0.28517 -4.57227,9.66155 -4.33747,10.04147 0.26432,0.42768 8.44984,0.34204 8.44984,-0.0884 z m 13.76,9.67 c 0,-0.19271 0.432,-0.35039 0.96,-0.35039 0.53333,0 1.24444,-0.28445 1.6,-0.64 0.61444,-0.61444 0.64,-1.06667 0.64,-11.32455 0,-11.9235 0.0436,-11.68369 -2.24,-12.31038 -0.82448,-0.22625 0.53224,-0.31497 5.14192,-0.33621 7.0998,-0.0327 8.81856,0.28382 10.75026,1.97988 0.63973,0.56169 1.3577,1.48689 1.59549,2.05598 0.55388,1.32564 0.55388,3.66492 0,4.99056 -0.45211,1.08203 -2.50865,3.09729 -3.1788,3.11499 -0.21388,0.006 0.40313,0.40165 1.37113,0.88 1.34204,0.66319 1.94091,1.20037 2.5218,2.26204 1.36928,2.50259 0.80004,5.99817 -1.29503,7.95242 -1.74153,1.62447 -2.8082,1.82123 -10.58677,1.95286 -5.13598,0.0869 -7.28,0.02 -7.28,-0.2272 z m 13.31166,-1.60013 c 1.76949,-0.80361 2.77343,-2.28559 2.92713,-4.32094 0.28992,-3.83916 -2.55378,-6.26932 -7.33617,-6.26932 -2.37709,0 -2.50345,0.0361 -2.51911,0.72 -0.009,0.396 -0.0151,2.80399 -0.0135,5.35108 0.003,5.35729 -0.18435,5.07472 3.38997,5.0994 1.52907,0.0106 2.6563,-0.1736 3.55166,-0.58022 z m -0.63872,-12.2282 c 1.94987,-0.59036 3.19801,-2.84642 2.92327,-5.28392 -0.37925,-3.36469 -3.65896,-5.38929 -7.73911,-4.77743 l -1.4229,0.21338 -0.0971,4.22295 c -0.13907,6.04821 -0.16847,5.92459 1.44247,6.06445 1.61993,0.14064 3.54989,-0.0327 4.89337,-0.43943 z m 16.44706,13.79794 c 0,-0.176 0.48168,-0.32 1.0704,-0.32 1.94506,0 2.27454,-0.75511 2.39537,-5.48968 l 0.10577,-4.14455 -4.03383,-6.18485 c -4.57128,-7.00891 -5.21194,-7.79577 -6.56805,-8.06699 -2.31873,-0.46375 -0.58309,-0.75217 4.39034,-0.72959 4.49337,0.0204 5.19351,0.0851 4.33031,0.4 -1.67252,0.61018 -2.21287,1.33074 -1.80608,2.40844 0.59806,1.58445 6.27897,10.01202 6.55972,9.73127 0.65237,-0.65237 5.76121,-8.96063 5.93609,-9.65358 0.25229,-0.99969 -0.18168,-1.6624 -1.52913,-2.3351 -1.08006,-0.53921 -1.04636,-0.54473 3.38909,-0.55464 l 4.48,-0.01 -1.76,0.87828 c -1.85812,0.92724 -2.30556,1.48913 -6.68351,8.39306 -0.94793,1.49487 -2.06393,3.22968 -2.48,3.85514 -0.70639,1.06189 -0.75649,1.43804 -0.75649,5.68 0,4.11613 0.0601,4.60291 0.64,5.1828 0.39619,0.39619 1.06667,0.64 1.76,0.64 0.616,0 1.12,0.144 1.12,0.32 0,0.2004 -1.97333,0.32 -5.28,0.32 -3.30667,0 -5.28,-0.1196 -5.28,-0.32 z M 60.117102,60.203339 c -1.67851,-2.024 -5.49451,-6.678069 -8.48,-10.342375 l -5.428163,-6.662376 -0.08515,8.870689 c -0.09679,10.083291 -0.08936,10.118568 2.239446,10.639834 1.094443,0.244972 0.475875,0.306111 -3.114299,0.307814 -3.41324,0.0016 -4.175211,-0.06725 -3.2,-0.289241 2.439377,-0.555276 2.4,-0.363124 2.4,-11.711408 V 40.940114 l -1.009261,-0.942791 c -0.555093,-0.518535 -1.635093,-1.110175 -2.4,-1.314757 -0.764903,-0.204581 -1.390736,-0.473633 -1.390736,-0.597894 0,-0.12426 1.495101,-0.232865 3.322447,-0.241344 l 3.322448,-0.01542 1.497883,1.906566 c 3.73165,4.749794 13.700867,16.800183 13.982981,16.902065 0.201175,0.07265 0.277781,-2.932481 0.213852,-8.389124 -0.111803,-9.543018 -0.07353,-9.391258 -2.448977,-9.709872 -0.724581,-0.09719 -1.240557,-0.30107 -1.146613,-0.453075 0.224264,-0.362865 8.412439,-0.290467 8.639167,0.07639 0.09602,0.155365 -0.184541,0.282481 -0.623471,0.282481 -1.171176,0 -2.312659,0.509014 -2.636074,1.175487 -0.156004,0.321482 -0.355643,5.912513 -0.443643,12.424513 l -0.16,11.84 z m 10.372601,-0.636824 c 0.04742,-2.286253 0.159952,-4.230559 0.250073,-4.320679 0.09012,-0.09012 0.399866,0.685022 0.688321,1.72254 0.653062,2.348934 1.806287,3.748302 3.887765,4.717565 2.775918,1.292635 5.794511,0.897076 7.533077,-0.987141 1.048932,-1.136808 1.118466,-3.531617 0.141461,-4.871995 -0.362196,-0.496906 -2.509465,-2.014064 -4.771707,-3.371462 -2.262243,-1.357399 -4.666808,-2.912913 -5.343477,-3.4567 -4.098937,-3.293995 -3.030364,-9.425459 1.941474,-11.140157 1.635374,-0.564012 4.308098,-0.452519 6.349153,0.264853 1.001503,0.352 2.072839,0.64 2.380746,0.64 0.307908,0 0.713965,-0.288 0.90235,-0.64 0.188385,-0.352 0.457805,-0.64 0.598713,-0.64 0.35716,0 0.462294,8.219803 0.107935,8.43881 -0.158479,0.09794 -0.527014,-0.681086 -0.818966,-1.73118 -0.991847,-3.567478 -3.862715,-5.680569 -7.272542,-5.352928 -2.964342,0.284836 -4.80559,3.109529 -3.538654,5.428712 0.573373,1.049586 2.533753,2.45153 6.801162,4.863778 2.118246,1.197385 4.208552,2.644855 4.858705,3.364496 2.305882,2.552336 2.369373,6.015575 0.156488,8.535912 -2.226899,2.536298 -5.948798,3.310375 -10.047617,2.089693 -2.89317,-0.861623 -3.860815,-0.870371 -4.125224,-0.03729 -0.508293,1.60149 -0.758524,0.305894 -0.679236,-3.516824 z m 73.450097,3.549981 c -2.55432,-0.817242 -4.51688,-2.292117 -5.99455,-4.504946 -1.33526,-1.999561 -2.29631,-5.191917 -2.29631,-7.627704 0,-5.392612 3.03832,-10.368673 7.61022,-12.463782 2.6229,-1.201963 6.24096,-1.364315 8.86978,-0.39801 2.64047,0.970588 3.75615,0.99241 4.15588,0.08129 0.73052,-1.665093 1.00009,-0.794016 1.28741,4.16 0.10973,1.892 0.12596,3.44 0.0361,3.44 -0.0899,0 -0.55104,-0.863636 -1.02474,-1.919192 -2.10213,-4.684157 -6.84316,-6.543402 -11.49461,-4.507736 -3.28993,1.439806 -5.28499,5.781692 -5.2762,11.482679 0.0111,7.182925 3.4602,11.339945 9.40273,11.332519 3.13365,-0.0039 4.57553,-0.65993 6.89105,-3.135231 2.17814,-2.328436 2.81041,-2.309047 1.0411,0.03193 -3.13651,4.149905 -8.09794,5.66307 -13.20782,4.028192 z m 48.38255,-0.0881 c -2.75185,-0.948068 -5.39903,-3.385605 -6.82774,-6.287021 -1.01217,-2.0555 -1.04567,-2.251885 -1.04567,-6.130777 0,-3.865157 0.0366,-4.082024 1.03178,-6.115774 1.24263,-2.53943 3.53479,-4.792284 6.09844,-5.993864 1.6205,-0.759528 2.21408,-0.857618 5.18978,-0.857618 3.21959,0 3.44453,0.04583 5.3827,1.096682 7.54063,4.088436 9.02899,14.832334 2.94578,21.264431 -2.23333,2.361409 -4.7544,3.479288 -8.16848,3.622013 -2.00901,0.08399 -3.00049,-0.04474 -4.60659,-0.598072 z m 6.08881,-0.724525 c 1.67514,-0.28157 3.63432,-1.836985 4.72974,-3.754999 1.2466,-2.182711 1.7672,-5.335298 1.52345,-9.22553 -0.44358,-7.079422 -3.20647,-10.663877 -8.23488,-10.68355 -1.70169,-0.0067 -2.37286,0.152006 -3.54245,0.837436 -2.93089,1.717615 -4.47579,5.351822 -4.52564,10.646114 -0.0669,7.107292 2.328,11.447427 6.80756,12.336772 0.616,0.122297 1.336,0.181128 1.6,0.130735 0.264,-0.05039 1.003,-0.179532 1.64222,-0.286978 z M 20.128939,62.763339 c 0,-0.176 0.410512,-0.32 0.912249,-0.32 1.473195,0 2.803309,-0.609537 3.281871,-1.503949 0.362741,-0.677946 0.44588,-3.593994 0.44588,-15.63899 V 30.494738 l -0.771893,-0.821561 c -0.534161,-0.568532 -1.248689,-0.884811 -2.32,-1.026925 -3.598293,-0.477331 -1.00347,-0.762912 6.931893,-0.762912 5.44,0 8.48,0.114717 8.48,0.32 0,0.176 -0.338512,0.32 -0.752249,0.32 -0.413736,0 -1.210112,0.159612 -1.769723,0.354693 -1.959456,0.68307 -1.958028,0.670839 -1.958028,16.770452 0,9.399508 0.117318,14.816139 0.329486,15.212579 0.438905,0.820102 1.968103,1.582275 3.174623,1.582275 0.53674,0 0.975891,0.144 0.975891,0.32 0,0.205283 -3.04,0.32 -8.48,0.32 -5.44,0 -8.48,-0.114717 -8.48,-0.32 z m 70.92035,-0.04526 c 2.578951,-0.579565 2.51965,-0.303067 2.51965,-11.748112 0,-5.569645 -0.104547,-10.49794 -0.232328,-10.951767 -0.250991,-0.891426 -1.406523,-1.574861 -2.662729,-1.574861 -0.431719,0 -0.784943,-0.13387 -0.784943,-0.29749 0,-0.513466 12.401291,-0.16674 14.174431,0.3963 3.41402,1.084083 5.2055,3.597061 4.9622,6.960668 -0.18011,2.490049 -1.39395,4.307508 -3.61876,5.418303 -1.3189,0.658497 -2.04482,0.794397 -4.15787,0.778398 -1.408004,-0.01066 -2.956004,-0.120405 -3.440001,-0.243877 l -0.88,-0.224495 v 4.438345 c 0,6.122653 0.16621,6.478612 3.360001,7.195876 0.352,0.07905 -1.880004,0.145014 -4.960001,0.146582 -4.170982,0.0021 -5.263071,-0.07287 -4.27965,-0.29387 z m 11.374421,-12.63482 c 0.47013,-0.236645 1.19013,-0.900436 1.6,-1.475091 0.62282,-0.873213 0.74523,-1.443126 0.74523,-3.469738 0,-2.163175 -0.0968,-2.551781 -0.89654,-3.600337 -0.4931,-0.646484 -1.31395,-1.391275 -1.82411,-1.65509 -0.98444,-0.509072 -4.042678,-0.645447 -4.727546,-0.210813 -0.309921,0.196683 -0.386962,1.524473 -0.32,5.5151 l 0.08819,5.256049 1.440002,0.18366 c 1.652544,0.210767 2.681124,0.06717 3.894774,-0.54374 z m 10.50125,12.509988 c 0.78981,-0.246004 1.61781,-0.695893 1.84,-0.999755 0.3059,-0.418342 0.40398,-3.104993 0.40398,-11.06586 V 40.014249 l -0.78545,-0.785455 c -0.49006,-0.490059 -1.15197,-0.785455 -1.76,-0.785455 -0.536,0 -0.97455,-0.124895 -0.97455,-0.277545 0,-0.15265 4.30129,-0.290379 9.55841,-0.306063 l 9.55842,-0.02852 0.20158,1.470726 c 0.27489,2.005484 0.25362,3.9414 -0.0433,3.9414 -0.13469,0 -0.4948,-0.703646 -0.80025,-1.563658 -0.81326,-2.289768 -1.64964,-2.596342 -7.08322,-2.596342 h -4.35164 v 5.146098 5.146098 l 4.02899,-0.106098 c 3.82242,-0.100658 4.06135,-0.146099 4.66004,-0.886297 0.34708,-0.429109 0.71203,-1.185109 0.81101,-1.68 0.41864,-2.093206 0.73996,-0.608025 0.73996,3.420199 0,2.376 -0.11413,4.32 -0.25363,4.32 -0.1395,0 -0.42571,-0.643377 -0.63602,-1.429726 -0.54966,-2.055109 -1.40645,-2.410274 -5.81446,-2.410274 h -3.53589 v 5.408696 5.408696 l 1.00775,0.351304 c 1.15265,0.401817 5.13703,0.43405 7.412,0.05996 1.90674,-0.313536 2.95468,-1.062505 4.32583,-3.091689 0.58607,-0.867333 1.18815,-1.621662 1.33796,-1.676287 0.1498,-0.05463 -0.1811,1.277374 -0.73535,2.96 l -1.00772,3.059318 -9.77023,-0.02141 c -8.8577,-0.01941 -9.63612,-0.06318 -8.33422,-0.468685 z m 54.71668,0.06434 c 0.98625,-0.257629 1.55814,-0.623535 1.83528,-1.174248 0.29903,-0.594223 0.4038,-3.536832 0.4073,-11.44 l 0.005,-10.64 -2.64,0.0012 c -3.09687,0.0014 -4.37891,0.584463 -5.01537,2.280957 -0.90604,2.415017 -0.96976,2.366563 -0.89709,-0.682154 l 0.0725,-3.04 10.2875,-0.07174 10.2875,-0.07174 0.13453,2.791742 c 0.074,1.535458 0.0693,2.917217 -0.0104,3.070575 -0.0797,0.153358 -0.37761,-0.41931 -0.66203,-1.272595 -0.77938,-2.338272 -1.97132,-3.006238 -5.36443,-3.006238 h -2.67299 v 10.844549 c 0,12.207948 -0.0552,11.920918 2.4,12.479796 0.94264,0.214572 -0.1538,0.293051 -4.16,0.297758 -4.74808,0.0056 -5.25777,-0.04121 -4.0073,-0.367855 z m 44.59206,0.115301 c 0.67362,-0.130268 1.53762,-0.549708 1.92,-0.932089 0.68593,-0.685927 0.69524,-0.838535 0.69524,-11.39492 0,-12.008301 0.0841,-11.581934 -2.34937,-11.908332 -0.72458,-0.09719 -1.23918,-0.303296 -1.14355,-0.458021 0.30923,-0.500349 13.2067,-0.07272 15.05734,0.499246 4.02838,1.245022 5.72881,5.776034 3.4601,9.219918 -0.76054,1.154506 -3.38103,2.804649 -4.45388,2.804649 -0.26985,0 -0.49064,0.148612 -0.49064,0.330248 0,0.602799 5.77299,8.447247 7.20326,9.787926 0.90289,0.846338 1.92716,1.449338 2.8615,1.684607 0.80038,0.201539 1.45524,0.436361 1.45524,0.521827 0,0.08546 -1.548,0.148442 -3.44,0.139947 l -3.44,-0.01544 -4.18518,-5.824555 -4.18517,-5.824555 h -1.41483 -1.41482 v 4.871732 c 0,4.574278 0.0424,4.914143 0.69524,5.566349 0.38238,0.382039 1.24638,0.8012 1.92,0.931468 0.72447,0.140104 -1.06271,0.236852 -4.37524,0.236852 -3.31253,0 -5.09971,-0.09675 -4.37524,-0.236852 z m 11.53792,-13.293287 c 3.77397,-1.790864 4.12647,-7.296062 0.60727,-9.484015 -0.97661,-0.607175 -1.61901,-0.745094 -3.33107,-0.71516 -1.16662,0.0204 -2.28262,0.136897 -2.48,0.258886 -0.409,0.252775 -0.52038,10.151059 -0.11888,10.564494 0.3978,0.40962 4.04554,-0.01816 5.32268,-0.624205 z"
       id="path1"
       inkscape:export-filename="path1.svg"
       inkscape:export-xdpi="96"
       inkscape:export-ydpi="96" />
  </g>
</svg>
